<svg width="128" height="128" viewBox="0 0 128 128" fill="none" xmlns="http://www.w3.org/2000/svg">
<rect width="128" height="128" rx="20" fill="white"/>
<path fill-rule="evenodd" clip-rule="evenodd" d="M70.1694 30.4416C67.5297 29.2168 64.6373 28.5807 61.6948 28.5993C51.532 28.6047 42.787 36.1607 42.787 46.0847C42.787 46.9209 43.1192 47.7229 43.7106 48.3143C44.3019 48.9056 45.1039 49.2378 45.9401 49.2378H54.5395C55.3757 49.2378 56.1777 48.9056 56.7691 48.3143L57.4059 47.6774L58.0428 48.3143C58.6341 48.9056 59.4361 49.2378 60.2724 49.2378H64.891L64.7472 49.6276C64.5355 50.2011 64.3168 50.7924 64.092 51.3999C63.2115 53.78 62.239 56.4089 61.2396 59.1929C59.7794 58.5485 57.0163 58.2214 55.1358 58.2214C51.0081 58.2214 47.4079 58.68 44.335 59.5973C41.308 60.5146 38.7626 61.707 36.6988 63.1746C34.6808 64.6423 33.0985 66.2245 31.952 67.9215C30.8054 69.5726 30.0716 71.1548 29.7505 72.6683C29.4295 74.457 29.4295 76.1998 29.7505 77.8967C30.0716 79.5937 30.8054 81.1989 31.952 82.7124C33.0985 84.18 34.7267 85.4642 36.8364 86.5649C38.1522 87.2088 39.6815 87.7416 41.4245 88.1633C40.5206 88.9859 39.6104 89.7831 38.6938 90.555C36.951 92.0226 35.1165 93.4673 33.1903 94.889C31.1723 96.3567 29.3148 97.6638 27.6179 98.8103C25.9209 99.9569 24.545 100.966 23.4902 101.837C22.4812 102.709 21.862 103.534 21.6327 104.314C21.541 104.727 21.5639 105.208 21.7015 105.759C21.7933 106.309 22.0455 106.791 22.4583 107.203C22.8252 107.616 23.3755 107.822 24.1093 107.822C25.0725 107.822 26.2878 107.456 27.7555 106.722C29.2231 105.942 30.8971 104.91 32.7775 103.626C34.6579 102.296 36.63 100.828 38.6938 99.2231C39.8404 98.3517 41.1246 97.3198 42.5464 96.1273C44.014 94.9349 45.4128 93.7195 46.7428 92.4812C48.1187 91.1971 49.2653 90.0275 50.1826 88.9727C51.0998 87.9178 51.6273 87.1382 51.7649 86.6337C51.9024 85.854 51.8566 85.2348 51.6273 84.7762C51.398 84.3176 50.7329 83.9965 49.6322 83.8131C45.1835 83.0334 41.9043 81.7951 39.7946 80.0982C37.6849 78.4012 36.9281 76.0622 37.5243 73.0811C37.7536 71.8886 38.3269 70.8338 39.2442 69.9165C40.2073 68.9534 41.3539 68.1508 42.6839 67.5087C44.0598 66.8666 45.5504 66.3851 47.1556 66.064C48.7608 65.743 50.3202 65.5825 51.8337 65.5825C53.714 65.5825 55.1587 65.743 56.1677 66.064C56.9495 66.268 57.8694 66.6479 58.5359 66.9803C58.4307 67.2961 58.3258 67.6126 58.2214 67.9298C55.9952 74.6917 53.9278 81.8705 52.7861 88.4121C51.6673 94.8227 51.3327 101.158 53.066 105.924C53.5191 107.171 54.7033 108 56.0292 108H71.0626C72.1161 108 73.0999 107.474 73.6849 106.598C74.2699 105.722 74.3787 104.611 73.9749 103.638C73.8836 103.418 73.6939 102.625 73.5608 101.013C73.437 99.5131 73.3815 97.5932 73.3965 95.3506C73.4266 90.8724 73.7367 85.2786 74.2795 79.5241C74.8223 73.7702 75.5924 67.9118 76.5308 62.9008C77.2392 59.1181 78.0131 55.994 78.7911 53.7846L90.8897 65.9116C91.4817 66.5051 92.2858 66.8384 93.1241 66.8378C93.9624 66.8372 94.7659 66.5028 95.3572 65.9086C102.358 58.8722 101.546 47.3554 94.3482 40.1574C94.2212 40.0304 94.0929 39.9054 93.9633 39.7824C93.9868 39.7603 94.01 39.7378 94.0329 39.7149L94.6698 39.078L95.3067 39.7149C95.898 40.3062 96.7 40.6384 97.5362 40.6384H103.269C105.011 40.6384 106.422 39.2267 106.422 37.4853C106.422 27.5579 97.6711 20 87.5037 20C79.9279 20 73.1385 24.1959 70.1694 30.4416ZM80.3375 40.6384C80.2245 40.6384 80.1129 40.6325 80.003 40.6209C78.4714 40.6991 76.9948 41.078 75.6683 41.7433L92.7536 58.8511C94.8767 54.5846 94.0766 48.8041 89.8891 44.6166C87.422 42.1495 84.4098 40.8551 81.4842 40.6384H80.3375ZM81.6709 34.3322H90.4973L92.4402 32.3893C93.6716 31.158 95.668 31.158 96.8993 32.3893L98.8423 34.3322H99.5972C98.0888 29.8296 93.4326 26.3062 87.5037 26.3062C81.2314 26.3062 76.3836 30.2494 75.1801 35.1237C77.2655 34.4484 79.4681 34.1917 81.6709 34.3322ZM68.6859 38.2794C68.6201 38.0257 68.5851 37.7596 68.5851 37.4853C68.5851 37.2312 68.5908 36.9785 68.6022 36.7276C66.522 35.5225 64.1494 34.8888 61.7273 34.9055L61.7056 34.9056C55.7766 34.9056 51.1205 38.429 49.612 42.9316H53.2334L55.1764 40.9887C56.4077 39.7573 58.4041 39.7573 59.6355 40.9887L61.5784 42.9316H67.1366C67.405 42.1149 67.5923 41.4883 67.7165 41.0279C67.7449 40.7763 67.8036 40.5274 67.8925 40.2871C67.9071 40.2073 67.916 40.1447 67.9197 40.0983C67.9762 39.3985 68.257 38.7705 68.6859 38.2794ZM72.3046 47.2979C71.8225 48.6592 71.2659 50.1783 70.6633 51.811C70.45 52.3891 70.2303 52.9829 70.0054 53.5909C68.2403 58.3626 66.1501 64.013 64.2113 69.9019C62.0225 76.5503 60.0631 83.3956 58.9984 89.4963C58.1276 94.4856 57.921 98.6374 58.4548 101.694H67.2898L67.276 101.532C67.1313 99.7786 67.0747 97.6564 67.0905 95.3082C67.1221 90.6048 67.4456 84.8224 68.0012 78.9319C68.5569 73.0409 69.35 66.9856 70.3324 61.74C71.295 56.6 72.4953 51.913 73.9772 48.9705L72.3046 47.2979Z" fill="#212121"/>
</svg>
