<svg xmlns="http://www.w3.org/2000/svg" style="display: none;">
    <symbol id="logo" viewBox="0 0 96 30">
        <path fill="#212121" d="M51.0834 29.9227C50.7719 29.9227 50.5254 29.8067 50.3437 29.5747C50.175 29.3427 50.0192 28.9625 49.8765 28.4341C49.7597 27.9831 49.6688 27.416 49.6039 26.7329C49.552 26.037 49.5261 25.3088 49.5261 24.5484C49.5261 23.7881 49.552 23.0663 49.6039 22.3833C49.6818 21.5456 49.7402 20.8496 49.7791 20.2954C49.8181 19.7413 49.8246 19.3031 49.7986 18.9809C49.7856 18.6587 49.7337 18.4331 49.6429 18.3043C49.552 18.1625 49.4093 18.0916 49.2146 18.0916C48.8902 18.0916 48.4749 18.3494 47.9687 18.8649C47.4626 19.3804 46.9175 20.115 46.3335 21.0687C45.7495 22.0224 45.1525 23.163 44.5426 24.4904C43.9326 25.8179 43.3551 27.3 42.81 28.9368C42.7062 29.2589 42.57 29.4974 42.4013 29.652C42.2325 29.8067 42.0249 29.884 41.7783 29.884C41.363 29.884 41.071 29.7487 40.9023 29.478C40.7466 29.1945 40.7401 28.7177 40.8828 28.0475C41.0386 27.2742 41.2527 26.5267 41.5252 25.805C41.8108 25.0704 42.1157 24.3422 42.4402 23.6205C42.7646 22.8988 43.0696 22.1835 43.3551 21.4747C43.6406 20.7659 43.8742 20.057 44.0559 19.3482C44.1208 19.0647 44.2181 18.852 44.3479 18.7102C44.4907 18.5685 44.6724 18.4976 44.893 18.4976C45.1006 18.4976 45.2953 18.5556 45.477 18.6716C45.6717 18.7876 45.8209 18.9744 45.9247 19.2322L45.0293 19.4835C45.8079 18.3494 46.5606 17.4923 47.2874 16.9124C48.0142 16.3195 48.7474 16.0231 49.4871 16.0231C50.2918 16.0231 50.8758 16.2422 51.2391 16.6804C51.6025 17.1186 51.8102 17.8081 51.8621 18.7489C51.914 19.6768 51.8751 20.8818 51.7453 22.3639C51.6544 23.3821 51.6285 24.2649 51.6674 25.0124C51.7063 25.747 51.7647 26.3721 51.8426 26.8876C51.9335 27.3902 52.0048 27.822 52.0567 28.1828C52.1216 28.5308 52.1281 28.8401 52.0762 29.1107C52.0243 29.3685 51.914 29.5683 51.7453 29.71C51.5766 29.8518 51.3559 29.9227 51.0834 29.9227ZM41.4084 26.2496C41.0061 26.2496 40.7271 26.1659 40.5714 25.9983C40.4156 25.8308 40.3637 25.6117 40.4156 25.341C40.4546 25.1477 40.5454 24.9866 40.6882 24.8577C40.8439 24.716 41.0775 24.5935 41.389 24.4904C42.8814 24.0136 44.5491 23.6527 46.3919 23.4079C48.2478 23.1501 50.2463 23.0212 52.3877 23.0212C52.9457 23.0212 53.3091 23.105 53.4778 23.2725C53.6465 23.4401 53.7049 23.6721 53.653 23.9685C53.5881 24.2907 53.3805 24.5678 53.0301 24.7998C52.6797 25.0188 52.2384 25.1284 51.7063 25.1284C50.3826 25.1284 49.2341 25.1671 48.2607 25.2444C47.3004 25.3088 46.4698 25.399 45.769 25.515C45.0682 25.6181 44.4582 25.7277 43.9391 25.8437C43.42 25.9597 42.9593 26.0563 42.557 26.1336C42.1676 26.211 41.7848 26.2496 41.4084 26.2496Z" />
        <path fill="#212121" d="M63.2357 14.6892C62.7425 14.6892 62.3142 14.6055 61.9509 14.4379C61.5875 14.2704 61.289 14.0577 61.0554 13.8C60.8218 13.5422 60.6596 13.2651 60.5687 12.9687C60.4779 12.6723 60.4584 12.3952 60.5103 12.1374C60.5622 11.8797 60.679 11.667 60.8607 11.4995C61.0554 11.3319 61.289 11.2482 61.5615 11.2482C61.7951 11.2482 61.9768 11.3384 62.1066 11.5188C62.2364 11.6864 62.3467 11.8668 62.4375 12.0601C62.5803 12.3307 62.736 12.5563 62.9047 12.7367C63.0734 12.9171 63.2941 13.0074 63.5666 13.0074C63.8262 13.0074 64.1117 12.9365 64.4231 12.7947C64.7346 12.6529 65.0526 12.4854 65.377 12.2921C65.5976 12.1503 65.8247 12.015 66.0583 11.8861C66.2919 11.7572 66.4996 11.6928 66.6813 11.6928C66.9149 11.6928 67.0771 11.7701 67.1679 11.9248C67.2588 12.0665 67.2847 12.2534 67.2458 12.4854C67.1939 12.6916 67.0511 12.9236 66.8175 13.1813C66.5969 13.4391 66.2984 13.684 65.9221 13.916C65.5587 14.135 65.1434 14.3219 64.6762 14.4766C64.222 14.6183 63.7418 14.6892 63.2357 14.6892ZM56.0914 30C55.6371 30 55.3387 29.8196 55.1959 29.4587C55.0661 29.0979 55.0596 28.6146 55.1764 28.0088C55.2413 27.7253 55.3387 27.3387 55.4684 26.8489C55.6112 26.3592 55.7669 25.805 55.9356 25.1864C56.1173 24.5549 56.2925 23.8912 56.4612 23.1952C56.6429 22.4864 56.8116 21.7711 56.9674 21.0494C57.0842 20.4694 57.1815 19.9153 57.2594 19.3869C57.3372 18.8584 57.4021 18.3945 57.454 17.995C57.506 17.5825 57.5514 17.2668 57.5903 17.0477C57.6552 16.7126 57.7785 16.4355 57.9602 16.2164C58.1548 15.9845 58.4014 15.8685 58.6999 15.8685C58.9205 15.8685 59.1217 15.9136 59.3034 16.0038C59.4851 16.094 59.6213 16.2422 59.7122 16.4484C59.803 16.6417 59.8225 16.9124 59.7706 17.2604C59.7057 17.7243 59.6084 18.2914 59.4786 18.9616C59.3488 19.6188 59.1996 20.3148 59.0309 21.0494C58.8751 21.7711 58.7259 22.4799 58.5831 23.1759C58.4144 24.0136 58.2392 24.7546 58.0575 25.399C57.8758 26.0434 57.7136 26.6105 57.5708 27.1002C57.4281 27.59 57.3178 28.0346 57.2399 28.4341L56.5002 27.6995C57.3697 27.0938 58.2132 26.3592 59.0309 25.4957C59.8485 24.6322 60.6466 23.7043 61.4253 22.7119C62.0871 21.8484 62.7036 21.0172 63.2746 20.2181C63.8456 19.4062 64.3647 18.678 64.8319 18.0336C65.3121 17.3892 65.7469 16.8802 66.1362 16.5064C66.5385 16.1198 66.8954 15.9265 67.2069 15.9265C67.5703 15.9265 67.8428 16.0489 68.0245 16.2938C68.2062 16.5386 68.2516 16.8608 68.1607 17.2604C68.1218 17.4537 68.0504 17.7694 67.9466 18.2076C67.8428 18.6329 67.7195 19.1355 67.5767 19.7155C67.434 20.2826 67.2847 20.8883 67.129 21.5327C66.9733 22.1771 66.837 22.8086 66.7202 23.4272C66.5515 24.3165 66.4347 25.0704 66.3698 25.689C66.3049 26.2947 66.2725 26.8038 66.2725 27.2162C66.2725 27.6157 66.279 27.9444 66.2919 28.2021C66.3049 28.4599 66.2919 28.6854 66.253 28.8788C66.227 29.0463 66.1492 29.2203 66.0194 29.4007C65.9026 29.5683 65.7534 29.7036 65.5717 29.8067C65.39 29.9227 65.1888 29.9807 64.9682 29.9807C64.7216 29.9807 64.5205 29.9033 64.3647 29.7487C64.209 29.6069 64.1117 29.42 64.0727 29.1881C64.0208 28.7628 64.0078 28.2408 64.0338 27.6222C64.0727 26.9907 64.1376 26.327 64.2285 25.631C64.3323 24.9222 64.4426 24.2456 64.5594 23.6012C64.6762 23.0599 64.8125 22.4864 64.9682 21.8807C65.1239 21.262 65.2732 20.6692 65.4159 20.1021C65.5717 19.5351 65.7144 19.0389 65.8442 18.6136C65.974 18.1883 66.0648 17.8983 66.1167 17.7436L66.8175 18.2463C66.6358 18.5169 66.3958 18.8649 66.0973 19.2902C65.8118 19.7026 65.4938 20.1601 65.1434 20.6627C64.793 21.1525 64.4296 21.6487 64.0533 22.1513C63.6769 22.6539 63.3135 23.1308 62.9631 23.5818C62.6257 24.0329 62.3207 24.4196 62.0482 24.7418C61.568 25.3475 61.0424 25.9597 60.4714 26.5783C59.9133 27.1969 59.3553 27.764 58.7972 28.2795C58.2392 28.795 57.7201 29.2138 57.2399 29.536C56.7727 29.8453 56.3899 30 56.0914 30Z" />
        <path fill="#212121" d="M78.7643 29.942C78.3231 29.942 77.8364 29.8582 77.3043 29.6907C76.7722 29.5232 76.2272 29.2912 75.6691 28.9948C75.1111 28.6854 74.579 28.331 74.0728 27.9315C73.5797 27.532 73.1449 27.1067 72.7686 26.6556C72.3922 26.1916 72.1132 25.7148 71.9315 25.2251C71.7498 24.7353 71.7109 24.2585 71.8147 23.7945C71.9185 23.2017 72.1586 22.6088 72.535 22.016C72.9243 21.4102 73.4175 20.811 74.0144 20.2181C74.6114 19.6124 75.2928 19.026 76.0584 18.4589C76.8241 17.8919 77.6482 17.3441 78.5307 16.8157C78.972 16.558 79.3418 16.3646 79.6403 16.2358C79.9388 16.1069 80.1984 16.0425 80.419 16.0425C80.7045 16.0425 80.9251 16.1327 81.0809 16.3131C81.2496 16.4935 81.295 16.7642 81.2171 17.125C81.1652 17.4215 81.016 17.6857 80.7694 17.9176C80.5358 18.1496 80.1724 18.4009 79.6793 18.6716C78.8746 19.0969 78.1349 19.5479 77.4601 20.0248C76.7852 20.4888 76.1947 20.9527 75.6886 21.4167C75.1954 21.8678 74.7996 22.2931 74.5011 22.6926C74.2026 23.0792 74.0274 23.4143 73.9755 23.6978C73.9106 24.02 73.982 24.3745 74.1897 24.7611C74.3973 25.1477 74.7153 25.5408 75.1435 25.9403C75.5718 26.327 76.0974 26.6943 76.7203 27.0422C77.3433 27.3773 78.0376 27.6544 78.8033 27.8735C79.2964 28.0153 79.6144 28.1828 79.7571 28.3761C79.9129 28.5694 79.9583 28.8143 79.8934 29.1107C79.8415 29.3814 79.7247 29.5876 79.543 29.7294C79.3743 29.8711 79.1147 29.942 78.7643 29.942ZM70.16 29.942C69.7707 29.942 69.4917 29.8196 69.323 29.5747C69.1543 29.3298 69.0764 28.9303 69.0894 28.3761C69.1023 27.8091 69.2062 27.0551 69.4008 26.1143C69.5955 25.1091 69.8226 24.1618 70.0822 23.2725C70.3417 22.3833 70.5753 21.5907 70.783 20.8947C71.0036 20.1859 71.1593 19.6124 71.2502 19.1742C71.328 18.7618 71.3735 18.4331 71.3864 18.1883C71.4124 17.9305 71.4254 17.705 71.4254 17.5117C71.4254 17.3055 71.4513 17.0864 71.5032 16.8544C71.5552 16.5709 71.6655 16.3582 71.8342 16.2164C72.0159 16.0747 72.2495 16.0038 72.535 16.0038C72.8724 16.0038 73.119 16.1004 73.2747 16.2938C73.4304 16.4871 73.5278 16.7448 73.5667 17.067C73.6056 17.3763 73.6056 17.7114 73.5667 18.0723C73.5278 18.4203 73.4759 18.7489 73.411 19.0582C73.3072 19.6124 73.1384 20.2503 72.9048 20.9721C72.6842 21.6938 72.4506 22.4542 72.204 23.2532C71.9704 24.0523 71.7758 24.8449 71.62 25.631C71.5162 26.1981 71.4383 26.6556 71.3864 27.0036C71.3345 27.3515 71.3021 27.6351 71.2891 27.8542C71.2761 28.0733 71.2631 28.273 71.2502 28.4535C71.2372 28.6339 71.2048 28.8401 71.1528 29.0721C71.1009 29.3427 70.9841 29.5554 70.8024 29.71C70.6337 29.8647 70.4196 29.942 70.16 29.942Z" />
        <path fill="#212121" d="M83.0102 30C82.556 30 82.2575 29.8196 82.1147 29.4587C81.985 29.0979 81.9785 28.6146 82.0953 28.0088C82.1602 27.7253 82.2575 27.3387 82.3873 26.8489C82.517 26.3592 82.6728 25.805 82.8545 25.1864C83.0362 24.5549 83.2114 23.8912 83.3801 23.1952C83.5618 22.4864 83.7305 21.7711 83.8862 21.0494C84.003 20.4694 84.1003 19.9153 84.1782 19.3869C84.2561 18.8584 84.321 18.3945 84.3729 17.995C84.4248 17.5825 84.4702 17.2668 84.5091 17.0477C84.574 16.7126 84.6973 16.4355 84.879 16.2164C85.0737 15.9845 85.3203 15.8685 85.6188 15.8685C85.8394 15.8685 86.0405 15.9136 86.2222 16.0038C86.4039 16.094 86.5402 16.2422 86.631 16.4484C86.7219 16.6417 86.7413 16.9124 86.6894 17.2604C86.6375 17.6083 86.5661 18.0207 86.4753 18.4976C86.3974 18.9616 86.3001 19.4577 86.1833 19.9861C86.0665 20.5017 85.9497 21.0365 85.8329 21.5907C85.7291 22.132 85.6187 22.6604 85.5019 23.1759C85.3332 24.0136 85.158 24.7546 84.9763 25.399C84.7947 26.0434 84.6324 26.6105 84.4897 27.1002C84.3469 27.59 84.2366 28.0346 84.1587 28.4341L83.419 27.6995C83.99 27.2871 84.5546 26.8231 85.1126 26.3076C85.6707 25.7921 86.2157 25.2315 86.7478 24.6258C87.2929 24.0071 87.825 23.3692 88.3441 22.7119C89.006 21.8484 89.6224 21.0172 90.1934 20.2181C90.7645 19.4062 91.2836 18.678 91.7508 18.0336C92.2309 17.3892 92.6657 16.8802 93.055 16.5064C93.4573 16.1198 93.8142 15.9265 94.1257 15.9265C94.4891 15.9265 94.7616 16.0489 94.9433 16.2938C95.125 16.5386 95.1704 16.8608 95.0796 17.2604C95.0406 17.4537 94.9693 17.7694 94.8654 18.2076C94.7616 18.6329 94.6383 19.1355 94.4956 19.7155C94.3528 20.2826 94.2036 20.8883 94.0478 21.5327C93.8921 22.1771 93.7558 22.8086 93.639 23.4272C93.4703 24.3165 93.3535 25.0704 93.2886 25.689C93.2237 26.2947 93.1913 26.8038 93.1913 27.2162C93.1913 27.6157 93.1978 27.9444 93.2108 28.2021C93.2237 28.4599 93.2108 28.6854 93.1718 28.8788C93.1459 29.0463 93.068 29.2203 92.9382 29.4007C92.8214 29.5683 92.6722 29.7036 92.4905 29.8067C92.3088 29.9227 92.1077 29.9807 91.887 29.9807C91.6405 29.9807 91.4393 29.9033 91.2836 29.7487C91.1278 29.6069 91.0305 29.42 90.9916 29.1881C90.9396 28.7628 90.9267 28.2408 90.9526 27.6222C90.9916 26.9907 91.0565 26.327 91.1473 25.631C91.2511 24.9222 91.3614 24.2456 91.4782 23.6012C91.595 23.0599 91.7313 22.4864 91.887 21.8807C92.0428 21.262 92.192 20.6692 92.3348 20.1021C92.4905 19.5351 92.6333 19.0389 92.763 18.6136C92.8928 18.1883 92.9837 17.8983 93.0356 17.7436L93.7364 18.2463C93.5547 18.5169 93.3146 18.8649 93.0161 19.2902C92.7306 19.7026 92.4126 20.1601 92.0622 20.6627C91.7118 21.1525 91.3485 21.6487 90.9721 22.1513C90.5957 22.6539 90.2324 23.1308 89.882 23.5818C89.5445 24.0329 89.2396 24.4196 88.967 24.7418C88.4868 25.3475 87.9612 25.9597 87.3902 26.5783C86.8322 27.1969 86.2741 27.764 85.7161 28.2795C85.158 28.795 84.6389 29.2138 84.1587 29.536C83.6915 29.8453 83.3087 30 83.0102 30Z" />
        <path fill="#212121" fill-rule="evenodd" clip-rule="evenodd" d="M16.6249 3.52099C15.7285 3.10797 14.7464 2.89348 13.7472 2.89977C10.2963 2.90158 7.32688 5.44953 7.32688 8.79596C7.32688 9.07795 7.43968 9.34839 7.64047 9.54779C7.84126 9.74719 8.11359 9.85921 8.39755 9.85921H11.3176C11.6015 9.85921 11.8738 9.74719 12.0746 9.54779L12.2909 9.33303L12.5072 9.54779C12.7079 9.74719 12.9803 9.85921 13.2642 9.85921H14.8325L14.7837 9.99065C14.7118 10.184 14.6375 10.3834 14.5612 10.5883C14.2622 11.3909 13.932 12.2774 13.5926 13.2161C13.0968 12.9989 12.1586 12.8886 11.52 12.8886C10.1184 12.8886 8.89593 13.0432 7.85251 13.3525C6.82467 13.6618 5.96035 14.0639 5.25954 14.5588C4.57431 15.0537 4.03703 15.5873 3.6477 16.1595C3.25836 16.7163 3.00919 17.2498 2.90018 17.7602C2.79116 18.3633 2.79116 18.951 2.90018 19.5232C3.00919 20.0954 3.25836 20.6367 3.6477 21.1471C4.03703 21.642 4.58989 22.075 5.30626 22.4462C5.75305 22.6633 6.27237 22.843 6.86422 22.9852C6.5573 23.2626 6.24822 23.5314 5.93699 23.7917C5.3452 24.2866 4.72226 24.7737 4.06818 25.2532C3.38295 25.7481 2.75223 26.1888 2.17601 26.5755C1.5998 26.9621 1.1326 27.3023 0.77441 27.5962C0.431796 27.89 0.221555 28.1684 0.143688 28.4313C0.112541 28.5705 0.120328 28.7329 0.167048 28.9185C0.198195 29.1041 0.283848 29.2665 0.424009 29.4056C0.548596 29.5448 0.735477 29.6144 0.984651 29.6144C1.31169 29.6144 1.72439 29.4907 2.22273 29.2433C2.72108 28.9803 3.28951 28.6324 3.92802 28.1993C4.56653 27.7508 5.23618 27.2559 5.93699 26.7147C6.32632 26.4208 6.76238 26.0728 7.24515 25.6707C7.7435 25.2686 8.21849 24.8588 8.67012 24.4412C9.13732 24.0082 9.52665 23.6138 9.83812 23.2581C10.1496 22.9024 10.3287 22.6395 10.3754 22.4694C10.4221 22.2065 10.4065 21.9977 10.3287 21.843C10.2508 21.6884 10.025 21.5801 9.65124 21.5183C8.14062 21.2554 7.02712 20.8378 6.31075 20.2656C5.59437 19.6933 5.33741 18.9046 5.53986 17.8994C5.61773 17.4973 5.8124 17.1416 6.12387 16.8322C6.45091 16.5075 6.84024 16.2368 7.29187 16.0203C7.75907 15.8038 8.26521 15.6414 8.81028 15.5331C9.35534 15.4249 9.88484 15.3708 10.3988 15.3708C11.0373 15.3708 11.5278 15.4249 11.8704 15.5331C12.1359 15.6019 12.4483 15.73 12.6746 15.8421C12.6389 15.9486 12.6033 16.0553 12.5678 16.1623C11.8119 18.4425 11.1098 20.8632 10.7222 23.0691C10.3423 25.2308 10.2286 27.3671 10.8172 28.9744C10.9711 29.3946 11.3732 29.6743 11.8234 29.6743H16.9282C17.2859 29.6743 17.62 29.4969 17.8186 29.2015C18.0172 28.906 18.0542 28.5316 17.9171 28.2035C17.8861 28.1293 17.8217 27.8616 17.7765 27.3181C17.7344 26.8124 17.7156 26.165 17.7207 25.4088C17.7309 23.8987 17.8362 22.0124 18.0205 20.072C18.2048 18.1317 18.4663 16.1562 18.785 14.4665C19.0255 13.1909 19.2883 12.1375 19.5525 11.3924L23.6607 15.4818C23.8617 15.6819 24.1347 15.7943 24.4194 15.7941C24.704 15.7939 24.9769 15.6811 25.1777 15.4807C27.5548 13.108 27.2792 9.22445 24.8351 6.79723C24.792 6.75442 24.7484 6.71227 24.7044 6.67079C24.7123 6.66333 24.7202 6.65574 24.728 6.64802L24.9443 6.43326L25.1605 6.64802C25.3613 6.84742 25.6336 6.95944 25.9176 6.95944H27.8643C28.4556 6.95944 28.9349 6.48341 28.9349 5.89619C28.9349 2.54858 25.9634 0 22.5109 0C19.9385 0 17.6331 1.4149 16.6249 3.52099ZM20.0776 6.95944C20.0392 6.95944 20.0013 6.95744 19.964 6.95353C19.4439 6.9799 18.9425 7.10767 18.4921 7.33201L24.2936 13.1009C25.0145 11.6622 24.7428 9.71296 23.3209 8.30089C22.4832 7.469 21.4604 7.03251 20.467 6.95944H20.0776ZM20.5304 4.83295H23.5274L24.1872 4.17777C24.6053 3.76255 25.2832 3.76255 25.7013 4.17777L26.3611 4.83295H26.6174C26.1052 3.31463 24.5242 2.1265 22.5109 2.1265C20.3811 2.1265 18.735 3.45619 18.3263 5.09982C19.0344 4.87213 19.7824 4.78555 20.5304 4.83295ZM16.1211 6.16397C16.0988 6.07842 16.0869 5.98869 16.0869 5.89619C16.0869 5.81048 16.0888 5.7253 16.0927 5.64066C15.3863 5.23431 14.5807 5.02062 13.7583 5.02624L13.7509 5.02629C11.7376 5.02629 10.1566 6.21439 9.64438 7.73271H10.8741L11.5338 7.07754C11.9519 6.66232 12.6298 6.66232 13.048 7.07754L13.7077 7.73271H15.5951C15.6862 7.45733 15.7498 7.24603 15.792 7.09078C15.8016 7.00592 15.8215 6.92199 15.8517 6.84098C15.8567 6.81408 15.8597 6.79296 15.861 6.77731C15.8801 6.54133 15.9755 6.32957 16.1211 6.16397ZM17.3499 9.20505C17.1862 9.66411 16.9972 10.1763 16.7926 10.7269C16.7201 10.9219 16.6456 11.1221 16.5692 11.3271C15.9698 12.9362 15.2601 14.8415 14.6017 16.8273C13.8585 19.0692 13.1932 21.3775 12.8316 23.4347C12.5359 25.1171 12.4658 26.5171 12.6471 27.5478H15.6471L15.6424 27.4931C15.5933 26.902 15.574 26.1864 15.5794 25.3945C15.5901 23.8085 15.7 21.8586 15.8886 19.8723C16.0773 17.8858 16.3467 15.8439 16.6802 14.0751C17.0071 12.3418 17.4147 10.7613 17.9179 9.76907L17.3499 9.20505Z" />
        <path fill="#212121" d="M37.0465 29.9033C36.7351 29.9033 36.495 29.8002 36.3263 29.594C36.1575 29.3878 36.0407 29.0979 35.9759 28.7241C35.9369 28.4663 35.898 28.0668 35.8591 27.5255C35.8331 26.9714 35.8071 26.327 35.7812 25.5924C35.7682 24.8577 35.7617 24.0716 35.7617 23.2339C35.7747 22.3833 35.7942 21.5262 35.8201 20.6627C35.8337 20.2125 35.8525 19.7744 35.8766 19.3487L35.4113 20.1408C35.1388 20.6048 34.8403 21.1138 34.5159 21.668C34.1914 22.2222 33.8605 22.7828 33.5231 23.3499C33.1856 23.9169 32.8547 24.4647 32.5302 24.9931C32.2188 25.5215 31.9333 25.9919 31.6737 26.4043C31.4142 26.8167 31.2 27.1518 31.0313 27.4095C30.6939 27.9251 30.3824 28.3052 30.0969 28.5501C29.8244 28.7821 29.5064 28.8981 29.143 28.8981C28.8445 28.8981 28.5915 28.7885 28.3838 28.5694C28.1762 28.3375 28.0399 27.9508 27.975 27.4095C27.9101 26.9585 27.8517 26.3721 27.7998 25.6503C27.7609 24.9157 27.7285 24.1103 27.7025 23.2339C27.6895 22.3446 27.6895 21.4425 27.7025 20.5274C27.7115 19.8917 27.7268 19.2809 27.7483 18.695C27.6448 18.8221 27.5387 18.9561 27.43 19.0969C27.1315 19.4835 26.833 19.9088 26.5345 20.3728C26.236 20.8238 25.944 21.2814 25.6585 21.7453C25.386 22.2093 25.1394 22.6604 24.9188 23.0986C24.5164 23.8718 24.179 24.6387 23.9065 25.399C23.634 26.1465 23.4133 26.8038 23.2446 27.3709C23.0889 27.9251 22.9851 28.331 22.9332 28.5888C22.8812 28.8079 22.7904 29.0205 22.6606 29.2267C22.5308 29.42 22.3751 29.5811 22.1934 29.71C22.0117 29.826 21.8041 29.884 21.5705 29.884C21.272 29.884 21.0384 29.7422 20.8697 29.4587C20.7139 29.1752 20.688 28.7885 20.7918 28.2988C20.8437 27.9766 20.954 27.5191 21.1227 26.9262C21.3044 26.3205 21.5445 25.631 21.843 24.8577C22.1545 24.0716 22.5308 23.2597 22.9721 22.4219C23.3225 21.726 23.7053 21.0558 24.1206 20.4114C24.5359 19.767 24.9512 19.1806 25.3665 18.6522C25.7818 18.111 26.1776 17.6405 26.554 17.241C26.9433 16.8415 27.3002 16.5322 27.6246 16.3131C27.9491 16.094 28.2151 15.9845 28.4228 15.9845C28.7342 15.9845 28.9938 16.0747 29.2014 16.2551C29.4091 16.4355 29.5648 16.6868 29.6686 17.009C29.7854 17.3183 29.8438 17.6728 29.8438 18.0723C29.8309 18.678 29.8244 19.3546 29.8244 20.1021C29.8244 20.8496 29.8309 21.6164 29.8438 22.4026C29.8568 23.1888 29.8763 23.9427 29.9022 24.6644C29.9232 25.0451 29.9459 25.3998 29.9706 25.7285C30.1851 25.3688 30.4089 24.9883 30.642 24.5871C31.0443 23.904 31.4466 23.2145 31.8489 22.5186C32.2512 21.8227 32.6341 21.1525 32.9974 20.5081C33.3738 19.8637 33.7047 19.2966 33.9903 18.8069C34.2758 18.3172 34.4964 17.9499 34.6521 17.705C34.8987 17.3055 35.1323 16.9897 35.3529 16.7577C35.5865 16.5129 35.8136 16.3453 36.0343 16.2551C36.2549 16.152 36.482 16.1004 36.7156 16.1004C36.9752 16.1004 37.2023 16.1778 37.3969 16.3324C37.6046 16.4871 37.7668 16.7126 37.8836 17.009C38.0134 17.2926 38.0848 17.6405 38.0977 18.053C38.0977 18.2978 38.0912 18.6329 38.0783 19.0582C38.0653 19.4706 38.0523 19.941 38.0393 20.4694C38.0264 20.9978 38.0134 21.5649 38.0004 22.1706C37.9874 22.7635 37.9809 23.3692 37.9809 23.9878C37.9809 25.0446 38.0069 25.9081 38.0588 26.5783C38.1107 27.2356 38.1561 27.7446 38.1951 28.1055C38.247 28.4663 38.2535 28.7241 38.2145 28.8788C38.1756 29.0721 38.0977 29.2461 37.9809 29.4007C37.8771 29.5554 37.7408 29.6778 37.5721 29.768C37.4164 29.8582 37.2412 29.9033 37.0465 29.9033Z" />
    </symbol>

    <symbol id="search" viewBox="0 0 24 24">
        <path fill="#212121" fill-rule="evenodd" clip-rule="evenodd" d="M18.6676 4.58432C16.5442 2.47087 13.1145 2.47356 11.0046 4.58241C8.89119 6.70592 8.89394 10.1357 11.0029 12.2455C13.1264 14.3588 16.5561 14.356 18.6659 12.2471C20.7791 10.1236 20.7764 6.69413 18.6676 4.58432ZM8.4216 13.0606C6.17722 9.96777 6.45049 5.61293 9.23406 2.81746L9.23595 2.81558C12.3244 -0.272896 17.3355 -0.270193 20.4325 2.81369L20.4344 2.81557C23.5229 5.90405 23.5202 10.9151 20.4363 14.0122L20.4344 14.0141C17.6458 16.8026 13.2899 17.0712 10.1906 14.8271L2.38388 22.6339C1.89573 23.122 1.10427 23.122 0.616116 22.6339C0.127961 22.1457 0.127961 21.3543 0.616117 20.8661L8.4216 13.0606Z" />
    </symbol>

    <symbol id="catalogue" viewBox="0 0 19 24">
        <path fill="#212121" stroke="#212121" d="M13.875 6V6.5H14.375H17.75C17.905 6.5 18.0607 6.56537 18.1807 6.69344C18.3018 6.82261 18.375 7.00431 18.375 7.2V20.4C18.375 21.2322 18.0648 22.0244 17.5217 22.6036C16.9797 23.1818 16.2517 23.5 15.5 23.5H4.25C3.4983 23.5 2.77031 23.1818 2.22828 22.6036C1.68523 22.0244 1.375 21.2322 1.375 20.4V7.2C1.375 7.00431 1.44818 6.82261 1.56927 6.69344C1.68934 6.56537 1.84503 6.5 2 6.5H5.375H5.875V6V4.8C5.875 3.64953 6.30376 2.55216 7.05779 1.74786C7.81079 0.944653 8.82493 0.5 9.875 0.5C10.9251 0.5 11.9392 0.944653 12.6922 1.74786C13.4462 2.55216 13.875 3.64953 13.875 4.8V6ZM12.125 6.5H12.625V6V4.8C12.625 4.04091 12.3426 3.30694 11.8308 2.76097C11.3179 2.21392 10.6151 1.9 9.875 1.9C9.13486 1.9 8.43211 2.21392 7.91924 2.76097C7.4074 3.30694 7.125 4.04091 7.125 4.8V6V6.5H7.625H12.125ZM3.125 7.9H2.625V8.4V20.4C2.625 20.8408 2.78887 21.2696 3.08974 21.5905C3.39162 21.9125 3.80823 22.1 4.25 22.1H15.5C15.9418 22.1 16.3584 21.9125 16.6603 21.5905C16.9611 21.2696 17.125 20.8408 17.125 20.4V8.4V7.9H16.625H14.375H13.875V8.4V9.6C13.875 9.79569 13.8018 9.97739 13.6807 10.1066C13.5607 10.2346 13.405 10.3 13.25 10.3C13.095 10.3 12.9393 10.2346 12.8193 10.1066C12.6982 9.97739 12.625 9.79569 12.625 9.6V8.4V7.9H12.125H7.625H7.125V8.4V9.6C7.125 9.79569 7.05182 9.97739 6.93073 10.1066C6.81066 10.2346 6.65497 10.3 6.5 10.3C6.34503 10.3 6.18934 10.2346 6.06927 10.1066C5.94818 9.97739 5.875 9.79569 5.875 9.6V8.4V7.9H5.375H3.125Z" />
    </symbol>

    <symbol id="profile" viewBox="0 0 24 24">
        <path fill="#212121" fill-rule="evenodd" clip-rule="evenodd" d="M12 3.25C10.6193 3.25 9.5 4.36929 9.5 5.75C9.5 7.13071 10.6193 8.25 12 8.25C13.3807 8.25 14.5 7.13071 14.5 5.75C14.5 4.36929 13.3807 3.25 12 3.25ZM7 5.75C7 2.98858 9.23858 0.75 12 0.75C14.7614 0.75 17 2.98858 17 5.75C17 8.51142 14.7614 10.75 12 10.75C9.23858 10.75 7 8.51142 7 5.75ZM7 15.75C6.00544 15.75 5.05161 16.1451 4.34835 16.8484C3.64509 17.5516 3.25 18.5054 3.25 19.5C3.25 19.8315 3.3817 20.1495 3.61612 20.3839C3.85054 20.6183 4.16848 20.75 4.5 20.75H19.5C19.8315 20.75 20.1495 20.6183 20.3839 20.3839C20.6183 20.1495 20.75 19.8315 20.75 19.5C20.75 18.5054 20.3549 17.5516 19.6516 16.8484C18.9484 16.1451 17.9946 15.75 17 15.75H7ZM2.58058 15.0806C3.75268 13.9085 5.3424 13.25 7 13.25H17C18.6576 13.25 20.2473 13.9085 21.4194 15.0806C22.5915 16.2527 23.25 17.8424 23.25 19.5C23.25 20.4946 22.8549 21.4484 22.1516 22.1516C21.4484 22.8549 20.4946 23.25 19.5 23.25H4.5C3.50544 23.25 2.55161 22.8549 1.84835 22.1516C1.14509 21.4484 0.75 20.4946 0.75 19.5C0.75 17.8424 1.40848 16.2527 2.58058 15.0806Z" />
    </symbol>
</svg>
